<?xml version="1.0" standalone="no"?><!DOCTYPE svg PUBLIC "-//W3C//DTD SVG 1.1//EN" "http://www.w3.org/Graphics/SVG/1.1/DTD/svg11.dtd"><svg t="1773898082259" class="icon" viewBox="0 0 1024 1024" version="1.1" xmlns="http://www.w3.org/2000/svg" p-id="1399" width="16" height="16" xmlns:xlink="http://www.w3.org/1999/xlink"><path d="M512 938.688A426.688 426.688 0 1 1 512 85.312a426.688 426.688 0 0 1 0 853.376z m0-85.376A341.312 341.312 0 1 0 512 170.688a341.312 341.312 0 0 0 0 682.624z m0-401.664l120.64-120.64 60.352 60.288L572.288 512l120.704 120.704-60.352 60.288L512 572.352l-120.704 120.64-60.352-60.288L451.648 512 330.88 391.296l60.352-60.288L512 451.648z" fill="#CD0505" p-id="1400"></path></svg>